<svg xmlns="http://www.w3.org/2000/svg" xmlns:xlink="http://www.w3.org/1999/xlink" width="500" zoomAndPan="magnify" viewBox="0 0 375 374.999991" height="500" preserveAspectRatio="xMidYMid meet" version="1.0"><defs><clipPath id="id1"><path d="M 38.203125 17 L 336.703125 17 L 336.703125 366 L 38.203125 366 Z M 38.203125 17 " clip-rule="nonzero"/></clipPath></defs><rect x="-37.5" width="450" fill="#ffffff" y="-37.499999" height="449.999989" fill-opacity="1"/><rect x="-37.5" width="450" fill="#ffffff" y="-37.499999" height="449.999989" fill-opacity="1"/><rect x="-37.5" width="450" fill="#ffffff" y="-37.499999" height="449.999989" fill-opacity="1"/><rect x="-37.5" width="450" fill="#ffffff" y="-37.499999" height="449.999989" fill-opacity="1"/><g clip-path="url(#id1)"><path fill="#00c2cb" d="M 260.941406 244.328125 L 113.96875 244.328125 C 112.035156 244.328125 110.472656 242.761719 110.472656 240.832031 L 110.472656 90.972656 C 110.472656 88.136719 113.675781 86.480469 115.992188 88.125 L 185.429688 137.453125 C 186.640625 138.3125 188.265625 138.3125 189.480469 137.453125 L 258.914062 88.125 C 261.230469 86.480469 264.4375 88.136719 264.4375 90.972656 L 264.4375 240.832031 C 264.4375 242.761719 262.871094 244.328125 260.941406 244.328125 Z M 38.199219 20.5 L 38.199219 308.03125 C 38.199219 309.957031 39.765625 311.523438 41.695312 311.523438 L 149.039062 311.523438 C 149.574219 311.523438 150.097656 311.644531 150.578125 311.882812 L 259.398438 365.300781 C 261.722656 366.441406 264.4375 364.75 264.4375 362.164062 L 264.4375 315.015625 C 264.4375 313.089844 266.003906 311.523438 267.933594 311.523438 L 333.210938 311.523438 C 335.140625 311.523438 336.707031 309.957031 336.707031 308.03125 L 336.707031 20.5 C 336.707031 18.570312 335.140625 17.003906 333.210938 17.003906 L 41.695312 17.003906 C 39.765625 17.003906 38.199219 18.570312 38.199219 20.5 " fill-opacity="1" fill-rule="nonzero"/></g></svg>